<svg width="206" height="220" viewBox="0 0 206 220" fill="none" xmlns="http://www.w3.org/2000/svg">
<path fill-rule="evenodd" clip-rule="evenodd" d="M185.304 10.312C224.625 -3.03973 129.131 -2.19792 94.7917 5.86141V26.5052C90.508 67.0802 91.0969 94.2155 97.2217 136.412C87.2436 136.412 78.7812 132.289 70.7779 128.391C56.007 121.196 42.8 114.762 24.5149 136.412C16.5766 145.81 11.403 150.269 8.54673 152.205C6.80243 152.521 5.83866 153.175 5.79285 153.422C5.74704 153.67 6.61918 153.512 8.54673 152.205C11.653 151.643 17.2344 152.15 24.5149 157.923C46.0302 174.983 92.4121 184.243 134.317 157.923C134.317 157.923 143.862 183.279 134.317 136.412C129.777 114.116 127.552 95.8915 127.42 77.0102C151.613 80.7252 172.241 80.651 166.757 71.8783L186.046 60.7518L128.079 56.1764C128.695 47.039 129.732 37.4082 131.17 26.8308C145.033 25.8652 159.269 25.8473 185.304 32.5649C231.303 44.4331 185.304 10.312 185.304 10.312ZM12.0816 211.39V193.385H17.4175V211.39C17.4175 213.127 17.0368 214.62 16.2754 215.869C15.514 217.107 14.473 218.058 13.1524 218.725C11.8437 219.391 10.3684 219.724 8.7266 219.724C7.0253 219.724 5.5203 219.438 4.21161 218.867C2.90292 218.296 1.87381 217.422 1.12429 216.244C0.374762 215.055 0 213.55 0 211.729H5.37159C5.37159 212.681 5.50246 213.437 5.7642 213.996C6.03783 214.555 6.42449 214.953 6.92418 215.191C7.42386 215.429 8.02467 215.548 8.7266 215.548C9.40474 215.548 9.99366 215.388 10.4933 215.066C10.993 214.745 11.3797 214.275 11.6533 213.657C11.9388 213.038 12.0816 212.283 12.0816 211.39ZM35.1612 219.064C35.9999 218.644 36.7056 218.077 37.2781 217.36L37.4098 219.367H42.246V200.059H37.1064V213.719C36.8478 214.254 36.473 214.691 35.9822 215.031C35.3754 215.459 34.5426 215.673 33.4837 215.673C33.0673 215.673 32.6866 215.62 32.3416 215.513C32.0085 215.405 31.717 215.227 31.4672 214.977C31.2173 214.727 31.021 214.406 30.8783 214.014C30.7474 213.621 30.6819 213.139 30.6819 212.568V200.059H25.5424V212.532C25.5424 213.817 25.697 214.918 26.0063 215.834C26.3276 216.738 26.7678 217.481 27.3269 218.064C27.898 218.635 28.5761 219.058 29.3614 219.331C30.1585 219.593 31.027 219.724 31.9668 219.724C33.1923 219.724 34.2571 219.504 35.1612 219.064ZM60.311 213.032C60.5251 213.329 60.6322 213.663 60.6322 214.031C60.6322 214.448 60.5132 214.817 60.2753 215.138C60.0493 215.447 59.7161 215.697 59.2759 215.887C58.8357 216.066 58.2825 216.155 57.6163 216.155C56.9976 216.155 56.4206 216.06 55.8852 215.869C55.3618 215.679 54.9275 215.37 54.5825 214.941C54.2494 214.513 54.0709 213.948 54.0471 213.246H49.1752C49.1752 214.293 49.4905 215.316 50.121 216.316C50.7635 217.303 51.7034 218.118 52.9407 218.76C54.1899 219.403 55.7127 219.724 57.5092 219.724C58.7465 219.724 59.8589 219.581 60.8464 219.296C61.8457 218.998 62.7023 218.588 63.4162 218.064C64.13 217.529 64.6773 216.904 65.058 216.191C65.4387 215.477 65.6291 214.692 65.6291 213.835C65.6291 212.574 65.3078 211.557 64.6654 210.784C64.0229 209.998 63.1544 209.38 62.0599 208.928C60.9653 208.464 59.7221 208.089 58.3301 207.803C57.652 207.673 57.0809 207.53 56.6169 207.375C56.1648 207.209 55.796 207.03 55.5105 206.84C55.2249 206.649 55.0167 206.441 54.8859 206.215C54.7669 205.977 54.7074 205.71 54.7074 205.412C54.7074 205.02 54.8145 204.663 55.0286 204.341C55.2547 204.008 55.5759 203.747 55.9923 203.556C56.4087 203.354 56.9024 203.253 57.4735 203.253C58.1635 203.253 58.7227 203.372 59.151 203.61C59.5912 203.836 59.9124 204.151 60.1147 204.556C60.3288 204.948 60.4359 205.394 60.4359 205.894H65.5755C65.5755 204.704 65.2483 203.646 64.594 202.718C63.9515 201.778 63.0236 201.04 61.81 200.505C60.6084 199.969 59.1689 199.702 57.4914 199.702C56.2897 199.702 55.2071 199.862 54.2434 200.184C53.2916 200.493 52.4826 200.927 51.8164 201.486C51.162 202.034 50.6564 202.664 50.2995 203.378C49.9545 204.092 49.782 204.853 49.782 205.662C49.782 206.483 49.9545 207.215 50.2995 207.857C50.6445 208.488 51.1204 209.035 51.7272 209.499C52.3458 209.963 53.0715 210.361 53.9043 210.694C54.749 211.016 55.6592 211.283 56.6348 211.497C57.7174 211.712 58.5443 211.949 59.1153 212.211C59.6983 212.461 60.0968 212.735 60.311 213.032ZM82.4448 200.059V203.699H79.1255V213.55C79.1255 214.109 79.1969 214.537 79.3396 214.834C79.4943 215.132 79.7203 215.34 80.0178 215.459C80.3152 215.566 80.69 215.62 81.1421 215.62C81.4633 215.62 81.7488 215.608 81.9986 215.584C82.2604 215.548 82.4805 215.513 82.6589 215.477L82.6768 219.26C82.2366 219.403 81.7607 219.516 81.2491 219.599C80.7375 219.682 80.1724 219.724 79.5538 219.724C78.4235 219.724 77.4361 219.54 76.5914 219.171C75.7586 218.79 75.1161 218.183 74.664 217.351C74.2119 216.518 73.9859 215.423 73.9859 214.067V203.699H71.2019V200.059H73.9859V195.294H79.1255V200.059H82.4448ZM95.0668 204.484V197.578H106.667V193.385H95.0668H93.6034H89.713V219.367H95.0668V208.66H105.417V204.484H95.0668ZM119.485 193.385V219.367H114.149V193.385H119.485ZM133.874 219.367H136.497C138.258 219.367 139.864 219.076 141.315 218.493C142.779 217.898 144.034 217.059 145.081 215.977C146.14 214.882 146.955 213.573 147.526 212.051C148.109 210.528 148.4 208.844 148.4 207V205.769C148.4 203.913 148.109 202.23 147.526 200.719C146.955 199.196 146.14 197.888 145.081 196.793C144.022 195.699 142.767 194.86 141.315 194.277C139.876 193.682 138.287 193.385 136.55 193.385H133.874H130.733H128.52V219.367H130.84H133.874ZM133.874 215.191H136.497C137.901 215.191 139.085 214.876 140.048 214.246C141.012 213.603 141.738 212.669 142.225 211.444C142.725 210.218 142.975 208.737 142.975 207V205.733C142.975 204.401 142.832 203.229 142.547 202.218C142.273 201.207 141.863 200.356 141.315 199.666C140.768 198.976 140.096 198.459 139.299 198.114C138.502 197.757 137.585 197.578 136.55 197.578H133.874V215.191ZM173.746 215.191V219.367H161.665H159.916H156.311V193.385H159.916H161.665H173.728V197.578H161.665V203.967H171.944V208.035H161.665V215.191H173.746ZM197.593 219.367V215.191H186.243V193.385H180.889V219.367H184.512H186.243H197.593Z" fill="#007BFF"/>
</svg>
